<svg xmlns="http://www.w3.org/2000/svg" viewBox="0 0 294.33 298.89"><defs><style>.cls-1{fill:#ff9a94;}</style></defs><g id="Layer_2" data-name="Layer 2"><g id="Layer_1-2" data-name="Layer 1"><path class="cls-1" d="M241,54.45c.28,10.92-3.88,58.86-16,78-8.07,12.74-18.23,20.77-33,30a353.9,353.9,0,0,1-88,39,561.86,561.86,0,0,1-104,20v75c22.28,3,61.26,5,102-5,18.81-4.6,72.43-20,120-67,22.84-22.6,47.36-46.85,51-85,2.51-26.32-16-72.94-22-85C243.33,55.45,248.67,53.45,241,54.45Z"/><path d="M29,0H41.28V65.32H29Zm4.5,0H71.88V11.86H33.47Zm0,27.54H66.93V39.4H33.47Z"/><path d="M87.4,63.61a16,16,0,0,1-6.88-6.94,23.67,23.67,0,0,1-2.36-11v-7.6a23.13,23.13,0,0,1,2.36-10.84,15.88,15.88,0,0,1,6.88-6.88A23.29,23.29,0,0,1,98.29,18a23.29,23.29,0,0,1,10.89,2.36,15.93,15.93,0,0,1,6.88,6.88,23.14,23.14,0,0,1,2.35,10.84v7.73a23.29,23.29,0,0,1-2.35,10.89,16.08,16.08,0,0,1-6.88,6.9A23,23,0,0,1,98.29,66,23,23,0,0,1,87.4,63.61ZM104,52a8.53,8.53,0,0,0,2.07-6.13V38.09A8.4,8.4,0,0,0,104,32a7.65,7.65,0,0,0-5.8-2.16A7.49,7.49,0,0,0,92.52,32a8.44,8.44,0,0,0-2,6.06v7.73a8.7,8.7,0,0,0,2,6.13,7.44,7.44,0,0,0,5.75,2.18A7.59,7.59,0,0,0,104,52Z"/><path d="M142,49.91a3.45,3.45,0,0,0,1,2.63,3.85,3.85,0,0,0,2.76.92h2.07V65.32h-6.29c-3.75,0-6.65-1.08-8.72-3.24s-3.1-5.19-3.1-9.12V0H142Z"/><path d="M168.59,49.91a3.45,3.45,0,0,0,1,2.63,3.85,3.85,0,0,0,2.76.92h2.07V65.32H168.1c-3.75,0-6.65-1.08-8.72-3.24s-3.1-5.19-3.1-9.12V0h12.31Z"/><path d="M190.81,63.61a16,16,0,0,1-6.88-6.94,23.67,23.67,0,0,1-2.36-11v-7.6a23.13,23.13,0,0,1,2.36-10.84,15.88,15.88,0,0,1,6.88-6.88,26.31,26.31,0,0,1,21.78,0,15.93,15.93,0,0,1,6.88,6.88,23.14,23.14,0,0,1,2.35,10.84v7.73a23.29,23.29,0,0,1-2.35,10.89,16.08,16.08,0,0,1-6.88,6.9,26.1,26.1,0,0,1-21.78,0ZM207.45,52a8.53,8.53,0,0,0,2.07-6.13V38.09A8.4,8.4,0,0,0,207.45,32a7.65,7.65,0,0,0-5.8-2.16A7.49,7.49,0,0,0,195.93,32a8.44,8.44,0,0,0-2.05,6.06v7.73a8.7,8.7,0,0,0,2,6.13,7.44,7.44,0,0,0,5.75,2.18A7.59,7.59,0,0,0,207.45,52Z"/><path d="M227.21,18.69H239l8.26,28.79,9.84-28.79h7.28l9.84,28.79,8.26-28.79h11.82L280,65.32h-9.16l-10-30.42-10,30.42h-9.16Z"/><path d="M70.08,110.4H86.29v65.32H75.11V125l.45,2.88L63.07,168.44H52.2L39.71,128.77l.45-3.77v50.72H29V110.4H45.19l12.44,44Z"/><path d="M108.24,173.94a16.73,16.73,0,0,1-7.3-7.14,23.6,23.6,0,0,1-2.52-11.3v-5.25a26.51,26.51,0,0,1,2.41-11.82,16.76,16.76,0,0,1,7-7.46A22.65,22.65,0,0,1,119,128.41a17.75,17.75,0,0,1,10.47,3.06,18.9,18.9,0,0,1,6.63,8.87,38.77,38.77,0,0,1,2.26,14v3.05H106.42v-8.31h20.66L127,148a10.9,10.9,0,0,0-2.54-6.24,7.08,7.08,0,0,0-5.46-2.2,8.9,8.9,0,0,0-6.89,2.65c-1.64,1.77-2.45,4.27-2.45,7.5v5.93c0,3.18.89,5.63,2.67,7.37s4.28,2.6,7.48,2.6a14.43,14.43,0,0,0,4.9-.87,15.17,15.17,0,0,0,4.4-2.49l8,7.14a26.85,26.85,0,0,1-8.17,5.14,24.53,24.53,0,0,1-9.17,1.82A24.93,24.93,0,0,1,108.24,173.94Z"/><path d="M20,220.8H67.88v11.86H20Zm17.79,5.35H50.09v60H37.78Z"/><path d="M72.37,220.8H84.68v65.32H72.37Zm26.95,37.06a7,7,0,0,0-1.95-5.3,7.65,7.65,0,0,0-5.55-1.89,7,7,0,0,0-5.28,1.91A7.4,7.4,0,0,0,84.68,258l-1-10.33a17.4,17.4,0,0,1,5.06-6.6,12,12,0,0,1,7.39-2.21q7.36,0,11.41,5t4,14v28.3H99.32Z"/><path d="M132.23,284.34a16.68,16.68,0,0,1-7.3-7.14,23.6,23.6,0,0,1-2.52-11.3v-5.25a26.54,26.54,0,0,1,2.41-11.82,16.68,16.68,0,0,1,7-7.45,22.54,22.54,0,0,1,11.12-2.57,17.77,17.77,0,0,1,10.47,3.06,18.82,18.82,0,0,1,6.62,8.87,38.54,38.54,0,0,1,2.27,14v3.05H130.41v-8.31h20.66l-.13-1.07a10.9,10.9,0,0,0-2.54-6.25,7.08,7.08,0,0,0-5.46-2.2,8.9,8.9,0,0,0-6.89,2.65c-1.64,1.77-2.45,4.27-2.45,7.5v5.93c0,3.18.89,5.63,2.67,7.37s4.27,2.6,7.48,2.6a14.43,14.43,0,0,0,4.9-.87,15.3,15.3,0,0,0,4.4-2.49l8,7.14a26.9,26.9,0,0,1-8.18,5.14,24.48,24.48,0,0,1-9.16,1.82A24.93,24.93,0,0,1,132.23,284.34Z"/><path d="M173.08,239.49h13.21v46.63H173.08Zm24,11.63a9.21,9.21,0,0,0-3-.45,7.19,7.19,0,0,0-5.78,2.41,10,10,0,0,0-2,6.67l-.94-12.13a16.45,16.45,0,0,1,5-6.49,11,11,0,0,1,6.76-2.32,14.34,14.34,0,0,1,5.28.93,11.6,11.6,0,0,1,4.11,2.71l-7.19,10A5.67,5.67,0,0,0,197.12,251.12Z"/><path d="M219.92,284.34a16.68,16.68,0,0,1-7.3-7.14,23.6,23.6,0,0,1-2.52-11.3v-5.25a26.68,26.68,0,0,1,2.4-11.82,16.7,16.7,0,0,1,7-7.45,22.54,22.54,0,0,1,11.12-2.57,17.77,17.77,0,0,1,10.47,3.06,18.82,18.82,0,0,1,6.62,8.87,38.75,38.75,0,0,1,2.27,14v3.05H218.1v-8.31h20.66l-.14-1.07a10.89,10.89,0,0,0-2.53-6.25,7.11,7.11,0,0,0-5.46-2.2,8.92,8.92,0,0,0-6.9,2.65q-2.44,2.65-2.44,7.5v5.93c0,3.18.89,5.63,2.67,7.37s4.27,2.6,7.48,2.6a14.38,14.38,0,0,0,4.89-.87,15.22,15.22,0,0,0,4.41-2.49l8,7.14A26.9,26.9,0,0,1,240.6,285a24.48,24.48,0,0,1-9.16,1.82A24.9,24.9,0,0,1,219.92,284.34Z"/><rect class="cls-1" x="33" y="7.45" width="4" height="18"/><rect class="cls-1" x="33" y="37.45" width="4" height="18"/><rect class="cls-1" x="33" y="119.45" width="4" height="18"/><rect class="cls-1" x="33" y="149.45" width="4" height="18"/><rect class="cls-1" x="42" y="232.45" width="4" height="18"/><rect class="cls-1" x="42" y="262.45" width="4" height="18"/><rect class="cls-1" x="79" y="119.45" width="4" height="18"/><rect class="cls-1" x="79" y="149.45" width="4" height="18"/></g></g></svg>